# xmcd
#
# Track frame offsets:
#	150
#	20492
#	36341
#	53236
#	70607
#	90154
#	106281
#	120192
#	140959
#	163730
#	181505
#	193294
#
# Disc length: 2803 seconds
#
# Revision: 0
# Processed by: cddbd v1.5.2PL0 Copyright (c) Steve Scherf et al.
# Submitted via: audiograbber 1.83.01
#
DISCID=9b0af10c
DTITLE=Howard Carpendale - ... Dann Geh Doch
DYEAR=1978
DGENRE=Schlager
TTITLE0=Dann Geh Doch
TTITLE1=Man Vergisst So Leicht
TTITLE2=Fängt Es Wieder An (Making Up Agan)
TTITLE3=Ferry Cross The Mersey
TTITLE4=Es Führt Kein Weg Zurück In Deine Kindheit
TTITLE5=Die Längste Nacht  (Forget Me Not)
TTITLE6=Man Nannte Sie Chicago
TTITLE7=Lady Put The Light Out
TTITLE8=Und Das Nannte Er Leben  (J'ai Oublie de Vivre)
TTITLE9=Eure Schatten An Der Wand
TTITLE10=Bantu-Lullabye
TTITLE11=Tease Me
EXTD=
EXTT0=
EXTT1=
EXTT2=
EXTT3=
EXTT4=
EXTT5=
EXTT6=
EXTT7=
EXTT8=
EXTT9=
EXTT10=
EXTT11=
PLAYORDER=
